<svg xmlns="http://www.w3.org/2000/svg" version="1.0" viewBox="0 0 1000 1000"><path d="M250 500v250h500V250H250zm215-40.8V485h70.1l-.2-25.6c0-14.1.2-25.8.5-26.1s7-.5 15-.4c9.6.1 14.6-.2 15.1-.9.5-.8 1.1-.8 2.1.1 1.2 1 1.4 11.3 1.4 65.4 0 35.4-.3 65-.6 65.9-.7 1.8-3.4 2.2-3.4.5 0-.7-4.7-1-14.7-.8l-14.8.3-.3-25.7-.2-25.7h-70v24.9c0 13.7-.3 25.6-.6 26.5-.7 1.8-3.4 2.2-3.4.5 0-.7-4.6-1-14.5-.7l-14.5.3V433.3c0-.4 6.5-.6 14.5-.4 13 .2 14.6.1 15.2-1.5s.7-1.6 2 .2c1 1.4 1.3 7.6 1.3 27.6"/><path fill="#000040" d="M461.7 431.4c-.4 1-.1 1.3.8.9.8-.3 1.2-.9.9-1.4-.7-1.2-1.1-1.1-1.7.5m-28.9 1.3c.7.3 1.6.2 1.9-.1.4-.3-.2-.6-1.3-.5-1.1 0-1.4.3-.6.6M461 564c0 .6.7 1 1.5 1s1.5-.2 1.5-.4-.7-.6-1.5-1c-.8-.3-1.5-.1-1.5.4m104.8.7c.7.3 1.6.2 1.9-.1.4-.3-.2-.6-1.3-.5-1.1 0-1.4.3-.6.6"/><path fill="#400040" d="M462.7 432.7c.9.7 1.3 7.6 1.6 26.3l.3 25.5-.1-25.9c0-22.2-.2-26-1.5-26.3-1.1-.3-1.2-.2-.3.4m103.3-.3c0 .2.7.7 1.6 1 .8.3 1.2.2.9-.4-.6-1-2.5-1.4-2.5-.6m2.5 62.6c0 32.7.1 46.1.2 29.7.2-16.3.2-43.1 0-59.5-.1-16.3-.2-2.9-.2 29.8m-104.3 42.2c-.1 19.4-.5 25.8-1.4 26.1q-1.5.6 0 .6c.7.1 1.5-.5 1.7-1.2.3-.7.4-12.5.2-26.2l-.2-25zm104 21.3c0 1.6.2 2.2.5 1.2.2-.9.2-2.3 0-3-.3-.6-.5.1-.5 1.8m-1.7 4.5c-1.6.7-1.7.9-.3.9.9.1 2-.4 2.3-.9.7-1.1.7-1.1-2 0"/><path fill="#004040" d="M535.4 459c0 14.6.2 20.5.3 13.2.2-7.2.2-19.2 0-26.5-.1-7.2-.3-1.3-.3 13.3m-34.1 52.7 33.7.3v25.5c0 13.9.3 25.6.8 25.8.4.3.5-11.3.2-25.6l-.5-26.2h-68z"/><path fill="teal" d="M538.8 457.6c.2 14.8.6 24.4 1.2 24.4 1.6 0 1.3-47.7-.2-48.3-1-.3-1.2 4.7-1 23.9M435.5 498c0 35.5.1 50 .2 32.3.2-17.8.2-46.8 0-64.5-.1-17.8-.2-3.3-.2 32.2M539 483.8c0 .7-1 1.2-2.2 1.2-1.7 0-1.9.3-1 1.2 1 .9 1.6.8 2.9-.5.9-.9 1.4-2 1-2.3-.4-.4-.7-.2-.7.4m-3 26.2c0 .5.7 1 1.6 1 .8 0 1.2-.5.9-1-.3-.6-1-1-1.6-1-.5 0-.9.4-.9 1m3 28c0 15.3.4 24 1 24s1-8.7 1-24-.4-24-1-24-1 8.7-1 24"/><path fill="#408080" d="M439.3 433.7c.9.2 2.3.2 3 0 .6-.3-.1-.5-1.8-.5-1.6 0-2.2.2-1.2.5m109.5 0c.6.2 1.8.2 2.5 0 .6-.3.1-.5-1.3-.5s-1.9.2-1.2.5m8 0c.7.3 1.6.2 1.9-.1.4-.3-.2-.6-1.3-.5-1.1 0-1.4.3-.6.6m6.4 3.8c0 1.6.2 2.2.5 1.2.2-.9.2-2.3 0-3-.3-.6-.5.1-.5 1.8m-104.1.1c0 1.1.3 1.4.6.6.3-.7.2-1.6-.1-1.9-.3-.4-.6.2-.5 1.3m.1 37.4c0 1.4.2 1.9.5 1.2.2-.6.2-1.8 0-2.5-.3-.6-.5-.1-.5 1.3m4.3 11c-.3.6.1.7.9.4 1.8-.7 2.1-1.4.7-1.4-.6 0-1.3.4-1.6 1m68.3-.3c.7.3 1.6.2 1.9-.1.4-.3-.2-.6-1.3-.5-1.1 0-1.4.3-.6.6m31.3 71.9c0 1.1.3 1.4.6.6.3-.7.2-1.6-.1-1.9-.3-.4-.6.2-.5 1.3m-104 1c0 1.1.3 1.4.6.6.3-.7.2-1.6-.1-1.9-.3-.4-.6.2-.5 1.3"/><g fill="#408040" stroke-width="0"><path d="M437.5 435c2.2 2.6 2.8 5.9 1.1 6.6-1.4.5-1.6 6.7-1.6 56.5 0 49 .2 55.9 1.5 55.9s1.5-6.8 1.5-55.3c0-64.2-1-58.7 10.7-58.7 6.8 0 7.1-.1 7.7-2.5.4-1.4.4-3.1 0-3.6-.4-.6-4.8-.9-11.4-.7-9.5.3-10.7.5-9.5 1.8"/><path d="M541.2 458.1c.1 13.7.5 24.9.9 24.9.5 0 .9.5.9 1.1 0 .5-.5.7-1 .4-.6-.4-1.5.7-2.1 2.5l-1.1 3.1-2.2-2.4-2.2-2.3-33.3-.2c-32.4-.2-37.7.2-41.7 3-1.4 1-2.4 0-2.4-2.5 0-1.1.5-1.7 1.3-1.4 1 .4 1.3-4.2 1.5-22.7.2-16.6-.1-22.6-.8-21.4-.9 1.5-2.5 1.8-8.5 1.8H443v54.7c0 30.2-.3 55.8-.6 57-.4 1.6-1.4 2.3-3 2.3-2.1 0-2.4.5-2.4 3.5v3.5h22v-2.7c0-2.1-.3-2.4-1.2-1.5-.7.7-4.2 1.2-8.5 1.2-5.8 0-7.3-.3-7.3-1.5s1.5-1.5 7.4-1.5c4.4 0 7.8-.5 8.2-1.1.4-.8.9-.7 1.5.2s.9-8 .8-21.8c-.1-12.8-.5-23.1-.9-22.8-1.3.8-2.4-1.5-1.2-2.7.6-.6 1.2-.6 1.6.1 1.2 1.8 2.3 1.2 2.2-1.1-.1-2.4 2.3-3.8 2.5-1.4.1.9.2 2.2.3 2.8.1 1 7.9 1.3 34.9 1.5l34.9.2 2.2-2.4 2.3-2.5 1.3 2.8c1 2 1.2 8.8 1.1 27.7-.2 13.7-.5 25.3-.7 25.7-.3.4 4.7.8 11.1.8 11.5 0 11.6 0 11.3-2.3-.2-1.6-.9-2.1-2.6-2-1.7.2-2.2-.2-2.2-2.2 0-1.8.5-2.5 2-2.5 2 0 2-.7 2.2-56.3l.3-56.2.5 57.5.5 57.5.3-57.7c.1-39.5-.1-57.9-.9-58.3-.5-.4-.9-2.1-.7-3.8l.3-3.1-10.6-.2-10.7-.2zm7-19.8c-.2 2.2.1 3.7.7 3.7.7 0 1.1 5 1.1 15.1 0 14.3 1.2 22.9 3.2 22.9 1 0 1 .4.8-19.8-.1-11.8.2-17.2.9-17.2 1.7 0 1.5 108.3-.1 111.1-1 1.7-1 2.3 0 2.6.6.3 1.2 1.1 1.2 2 0 .8-.6 1.3-1.2 1-.7-.2-1.2-.9-1.1-1.5.1-.5-.4-1.6-1.2-2.2-1.3-1.1-1.3-1.4-.1-2.4 1.2-.9 1.5-4.6 1.6-18.1.2-19.8.2-19.5-.8-19.5-2 0-3.2 8.6-3.2 22.4 0 12.1-.3 15-1.6 16.3-.9 1-1.3 2.5-1 3.8.4 1.6.1 2.5-1.1 2.9-2.2.9-2.5.4-1.7-4.2.4-2.9 1-3.9 2-3.5 1.2.4 1.4-2.3 1.4-15.6 0-13.1-.3-16.1-1.4-16.1-1.2 0-2.8-8.1-3.1-15.5 0-.5.8-1.1 1.9-1.3 1.6-.3 1.8 0 1.2 3-.8 3.6-.8 9.9-.1 10.6.2.2 1.1.2 2-.1 1-.4 1.5-2 1.5-4.9 0-2.4.5-5 1-5.8.6-1 1-1.1 1-.3 0 .7.5 1.3 1 1.3.6 0 1-4.3 1-11s-.4-11-1-11c-.5 0-1 .6-1 1.2 0 .9-.4.8-1-.2-.5-.8-1-3.4-1-5.8 0-2.9-.5-4.5-1.5-4.9-.9-.3-1.8-.4-2-.1-.7.6-.6 7 .1 10.6.6 3 .4 3.3-1.2 3-1.1-.2-1.9-.8-1.9-1.3.3-7.4 1.9-15.5 3.1-15.5 1.1 0 1.4-3 1.4-16 0-13.6-.2-16-1.5-16-1.1 0-1.5-1.1-1.5-4.1 0-3.3.3-4 1.7-3.7s1.7 1.1 1.5 4.1m10.5-1.3c1.2 1.5 1.8 6 .8 6-.3 0-1.7-1.2-3-2.8-2.4-2.6-2.4-2.6-2.5-.5 0 1.3-.4 2.3-.8 2.3s-.8-1.5-.8-3.4c0-3 .3-3.3 2.6-3.2 1.4 0 3 .8 3.7 1.6M459 480.2c0 1.6-.3 1.9-1.1 1.1-.6-.6-.8-1.6-.5-2.2 1.1-1.7 1.6-1.3 1.6 1.1m10 6.8c0 .5-.4 1-1 1-1.9 0-2.5.2-3.7 1.2-.9.7-1.3.7-1.3 0 0-1.2 2.9-3.1 4.8-3.2.6 0 1.2.4 1.2 1m5.3-.4c1.1 1.1-.3 2.4-1.8 1.8-.8-.4-1.2-1-.9-1.5.6-1.1 1.8-1.2 2.7-.3m48.9 3.6c-.9.9-1.2.7-1.2-1.2s.3-2.1 1.2-1.2.9 1.5 0 2.4m4.8.2c-1.4 1.4-2.4 0-1.6-2.1.6-1.5.8-1.5 1.6-.3.6.9.5 1.9 0 2.4m6.2-.2c-.9.9-1.5.9-2.4 0-1-1-1-1.5.2-2.2 2-1.2 3.8.6 2.2 2.2m-4.9 15.4c.9 1-.4 3.4-1.9 3.4-.8 0-1.4-.9-1.4-2 0-1.9 1.9-2.7 3.3-1.4m5 0c.9 1-.4 3.4-1.9 3.4-.8 0-1.4-.9-1.4-2 0-1.9 1.9-2.7 3.3-1.4m-10.9 1.9c-.5 1.2-5.1 1.5-28.2 1.7-15.3.2-28.1 0-28.6-.5-.6-.4 11.7-.7 27.2-.7 18.1 0 28.2-.4 28.2-1s.4-1 1-1c.5 0 .7.7.4 1.5m-64.4 9.1c0 1.4-.4 2.3-1 1.9-.5-.3-1-1.5-1-2.6 0-1 .5-1.9 1-1.9.6 0 1 1.2 1 2.6"/></g><path fill="#404080" d="M459.5 434.1c-1.1 1.6-.1 1.9 1.3.3.7-.8.8-1.4.3-1.4s-1.3.5-1.6 1.1m104-.1c-.3.6.1.7.9.4 1.8-.7 2.1-1.4.7-1.4-.6 0-1.3.4-1.6 1m-103.1 25.5c0 11.5.2 16.1.3 10.2.2-5.9.2-15.4 0-21-.1-5.6-.3-.8-.3 10.8m.2 26c.4.8 1 1.5 1.5 1.5.4 0 .6-.7.3-1.5-.4-.8-1-1.5-1.5-1.5-.4 0-.6.7-.3 1.5m-.1 25.5c-.7 1.2.2 1.2 3 0 1.9-.8 1.9-.9-.2-.9-1.2-.1-2.5.3-2.8.9m-.1 27.5c0 11 .2 15.6.3 10.3.2-5.3.2-14.3 0-20-.1-5.7-.3-1.3-.3 9.7M563.2 561c0 1.4.2 1.9.5 1.2.2-.6.2-1.8 0-2.5-.3-.6-.5-.1-.5 1.3m-104.2-.1c0 .5.5 1.3 1 1.6.6.3 1 .2 1-.4 0-.5-.4-1.3-1-1.6-.5-.3-1-.2-1 .4"/><path fill="purple" d="M565.4 435.4c-.3 1.3-.4 3.5-.1 4.7.3 1.7.5 1.3.6-1.3 0-2 .6-3.8 1.3-4 .9-.3.9-.6 0-1.2-.7-.4-1.4.2-1.8 1.8m-104.2 2.1c0 1.6.2 2.2.5 1.2.2-.9.2-2.3 0-3-.3-.6-.5.1-.5 1.8m.2 20c0 8.8.2 12.3.3 7.7.2-4.6.2-11.8 0-16-.1-4.2-.3-.5-.3 8.3m-.3 61.1c0 1.1.3 1.4.6.6.3-.7.2-1.6-.1-1.9-.3-.4-.6.2-.5 1.3m.3 19.4c0 9.1.2 12.8.3 8.2.2-4.5.2-11.9 0-16.5-.1-4.5-.3-.8-.3 8.3m104 20.2c.1 2.3.6 4.3 1.4 4.6.6.2 1.2-.1 1.2-.8 0-.6-.4-.9-.9-.5-.6.3-1.2-1.3-1.4-3.5l-.4-4zm-104.2-.2c0 1.4.2 1.9.5 1.2.2-.6.2-1.8 0-2.5-.3-.6-.5-.1-.5 1.3"/><path fill="#40BFBF" d="M536 434.4c0 .2.7.6 1.5 1 .8.3 1.5.1 1.5-.4 0-.6-.7-1-1.5-1s-1.5.2-1.5.4M432 562c0 .6.7 1 1.5 1s1.5-.2 1.5-.4-.7-.6-1.5-1c-.8-.3-1.5-.1-1.5.4m104 .2c0 .4.4.8.9.8.6 0 1.2-.4 1.5-.8.3-.5-.1-.9-.9-.9s-1.5.4-1.5.9"/><path fill="#00BFBF" d="M432.5 435.2c-.3.7-.4 29.4-.3 63.7.2 48.9.6 62.5 1.6 62.9 1.6.5 1.8-126.3.2-127.3-.6-.3-1.2 0-1.5.7M536 460c0 22.5.2 25.1 1.5 24s1.5-4.8 1.3-24.8c-.2-17.7-.6-23.6-1.5-24-1-.3-1.3 5.1-1.3 24.8m.5 52c-1 2.7-.1 49.5 1 49.5 1.3 0 1.9-47 .6-49.3-.8-1.5-1-1.5-1.6-.2"/><g fill="#008040" stroke-width="0"><path d="M436.2 498.5c.1 35.8.3 63.3.5 61.2.4-3.1.8-3.7 2.7-3.7 1.6 0 2.6-.7 3-2.3.3-1.2.6-26.8.6-56.9v-54.7l7.8-.3c7.4-.3 7.7-.4 7.9-2.8.1-1.4 0-1.8-.3-.8-.5 1.5-1.8 1.8-7.8 1.8-5.8 0-7.6.4-8.9 1.8-1.5 1.7-1.7 7.1-1.7 57 0 48.4-.2 55.2-1.5 55.2s-1.5-6.9-1.5-55.9c0-49.8.2-56 1.6-56.5 1.7-.7 1.1-4.1-1.2-6.6-1.2-1.2-1.4 8-1.2 63.5M545 437.9c0 3 .4 4.1 1.5 4.1 1.3 0 1.5 2.4 1.5 16 0 13-.3 16-1.4 16-1.2 0-2.8 8.1-3.1 15.5 0 .5.8 1.1 1.9 1.3 1.6.3 1.8 0 1.2-3-.7-3.6-.8-10-.1-10.6.2-.3 1.1-.2 2 .1 1 .4 1.5 2 1.5 4.9 0 2.4.5 5 1 5.8.6 1 1 1.1 1 .2 0-.6.5-1.2 1-1.2.6 0 1 4.3 1 11s-.4 11-1 11c-.5 0-1-.6-1-1.3 0-.8-.4-.7-1 .3-.5.8-1 3.4-1 5.8 0 2.9-.5 4.5-1.5 4.9-.9.3-1.8.3-2 .1-.7-.7-.7-7 .1-10.6.6-3 .4-3.3-1.2-3-1.1.2-1.9.8-1.9 1.3.3 7.4 1.9 15.5 3.1 15.5 1.1 0 1.4 3 1.4 16.1 0 13.3-.2 16-1.4 15.6-1-.4-1.6.6-2 3.5-.8 4.6-.5 5.1 1.7 4.2 1.2-.4 1.5-1.3 1.1-2.9-.3-1.3.1-2.8 1-3.8 1.3-1.3 1.6-4.2 1.6-16.3 0-13.8 1.2-22.4 3.2-22.4 1 0 1-.3.8 19.5-.1 13.5-.4 17.2-1.6 18.1-1.2 1-1.2 1.3.1 2.4.8.6 1.3 1.7 1.2 2.2-.1.6.4 1.3 1.1 1.5.6.3 1.2-.2 1.2-1 0-.9-.6-1.7-1.2-2-1-.3-1-.9 0-2.6 1.6-2.8 1.8-111.1.1-111.1-.7 0-1 5.4-.9 17.2.2 20.2.2 19.8-.8 19.8-2 0-3.2-8.6-3.2-22.9 0-10.1-.4-15.1-1.1-15.1-.6 0-.9-1.5-.7-3.7.2-3-.1-3.8-1.5-4.1s-1.7.4-1.7 3.7m-3.9-1.3c0 1.1.3 1.4.6.6.3-.7.2-1.6-.1-1.9-.3-.4-.6.2-.5 1.3"/><path d="M552.4 438.6c0 1.9.4 3.4.8 3.4s.8-1 .8-2.3c.1-2.1.1-2.1 2.5.5 2.9 3.4 3.5 3.5 3.5.5-.1-3.1-2-5.2-5-5.3-2.3-.1-2.6.2-2.6 3.2m9.8-.6c0 1.4.2 1.9.5 1.2.2-.6.2-1.8 0-2.5-.3-.6-.5-.1-.5 1.3m-.2 60c0 55.3 0 56-2 56-1.4 0-2 .7-2 2.4 0 1.9.5 2.4 2.5 2.2l2.5-.1v-58.3c0-32-.2-58.2-.5-58.2s-.5 25.2-.5 56m-21-19c0 1.6-.5 3-1.1 3-.5 0-.7.5-.4 1 1 1.6-1.6 4.2-3.4 3.5-1.1-.4-1-.1.4 1.3 2 1.9 2 1.9 3.3-1 .7-1.6 1.7-2.6 2.2-2.3.6.3 1 .1 1-.4 0-.6-.4-1.1-.8-1.1s-.6-1.6-.4-3.5.1-3.5-.2-3.5-.6 1.3-.6 3m-83.6.1c-.3.6-.1 1.6.5 2.2.8.8 1.1.5 1.1-1.1 0-2.4-.5-2.8-1.6-1.1m-.2 7c.1 1.3.8 2.3 1.3 2.1 1.5-.3 1.2-3.5-.3-4-.9-.3-1.3.3-1 1.9m7.6 1c-1 .5-1.8 1.5-1.8 2.1 0 .7.4.7 1.3 0 1.2-1 1.8-1.2 3.7-1.2.6 0 1-.5 1-1 0-1.3-2-1.2-4.2.1m6.8-.2c-.3.5.1 1.1.9 1.5 1.5.6 2.9-.7 1.8-1.8-.9-.9-2.1-.8-2.7.3M522 489c0 1.9.3 2.1 1.2 1.2s.9-1.5 0-2.4-1.2-.7-1.2 1.2m4.4-.7c-.8 2.1.2 3.5 1.6 2.1.5-.5.6-1.5 0-2.4-.8-1.2-1-1.2-1.6.3m5.6-.3c-1.2.7-1.2 1.2-.2 2.2.9.9 1.5.9 2.4 0 1.6-1.6-.2-3.4-2.2-2.2m-70.1 17.2c-.8 2.7-.5 3.8 1.1 3.8 1.3 0 1.7-.5 1.3-2-.4-1.6-2.1-2.8-2.4-1.8M526 507c0 2.3 2.5 2.7 3.3.6.7-1.6-.1-2.6-2-2.6-.7 0-1.3.9-1.3 2m5 0c0 2.3 2.5 2.7 3.3.6.7-1.6-.1-2.6-2-2.6-.7 0-1.3.9-1.3 2m-9 0c0 .6-10.1 1-28.2 1-15.5 0-27.8.3-27.2.7.5.5 13.3.7 28.6.5 23.1-.2 27.7-.5 28.2-1.7.3-.8.1-1.5-.4-1.5-.6 0-1 .4-1 1m14.6 1.1c-1 1-1.6 2.4-1.3 3.1.4.8.6.7.6-.5.1-.9.5-1.7 1.1-1.7 1.2 0 3.1 3.5 2.3 4.4-.3.3-.1.6.5.6s1.3 1.2 1.5 2.7c.2 1.6.3.9.1-1.5-.2-2.3-.9-5.3-1.6-6.6-1.3-2.2-1.4-2.3-3.2-.5m-79.1.9c-.4.6-.3 1.6.3 2.2s1.2.6 1.7-.2c.4-.6.3-1.6-.3-2.2s-1.2-.6-1.7.2m-.5 6.9c0 1.1.5 2.3 1 2.6.6.4 1-.5 1-1.9s-.4-2.6-1-2.6c-.5 0-1 .9-1 1.9m.6 39.9c-.4.8-3.4 1.2-8.2 1.2-5.9 0-7.4.3-7.4 1.5s1.5 1.5 7.4 1.5c7.4 0 10.3-1.3 9.4-4.2-.3-.9-.6-.9-1.2 0"/></g><path fill="#804080" d="M460 436.5c0 1.4.2 2.5.4 2.5s.6-1.1.8-2.5c.3-1.4.1-2.5-.3-2.5-.5 0-.9 1.1-.9 2.5m104 62c0 35.5.3 64.5.8 64.5.4 0 .7-29 .7-64.5s-.3-64.5-.7-64.5c-.5 0-.8 29-.8 64.5M461.2 475c0 1.4.2 1.9.5 1.2.2-.6.2-1.8 0-2.5-.3-.6-.5-.1-.5 1.3m-1.2 6.3c0 1 .7 2.5 1.5 3.3 1.9 1.9 1.9 1.4 0-2.2-1.1-2.1-1.5-2.4-1.5-1.1m1.3 30.4c-.7.2-1.3 1.4-1.2 2.6 0 1.5.2 1.7.6.7.3-.8 1.2-2.1 2.1-2.8 1.6-1.2.8-1.5-1.5-.5m-1.2 47.3c-.1 1.8 1.6 4.6 2.3 4 .2-.3-.2-1.6-.9-3-.8-1.5-1.4-1.9-1.4-1"/><path fill="#8000BF" d="M565.5 498c0 31.1.1 43.8.2 28.3.2-15.6.2-41 0-56.5-.1-15.6-.2-2.9-.2 28.2m-104.4-17.4c0 1.1.3 1.4.6.6.3-.7.2-1.6-.1-1.9-.3-.4-.6.2-.5 1.3m0 35c0 1.1.3 1.4.6.6.3-.7.2-1.6-.1-1.9-.3-.4-.6.2-.5 1.3"/><path fill="#BF00BF" d="M462 459.6c0 16.1.3 24.3 1 23.9.6-.4 1-9.7 1-24.6 0-15.3-.4-23.9-1-23.9s-1 8.9-1 24.6M566 498c0 41.3.3 63 1 63s1-21.7 1-63-.3-63-1-63-1 21.7-1 63m-104 39c0 15.3.4 24 1 24s1-8.7 1-24-.4-24-1-24-1 8.7-1 24"/></svg>